<?xml version="1.0" encoding="utf-8"?>
<!-- Generator: Adobe Illustrator 23.0.1, SVG Export Plug-In . SVG Version: 6.00 Build 0)  -->
<svg version="1.1" id="Layer_1" xmlns="http://www.w3.org/2000/svg" xmlns:xlink="http://www.w3.org/1999/xlink" x="0px" y="0px"
	 viewBox="0 0 1417.3 1417.3" style="enable-background:new 0 0 1417.3 1417.3;" xml:space="preserve">
<style type="text/css">
	.st0{fill:#CD232E;}
</style>
<g>
	<g>
		<g>
			<g>
				<g>
					<g>
						<path class="st0" d="M645.1,841.5c-1.8,0-3.6-0.1-5.4-0.2c-9.2,0.2-94.6-1-153.3-105.6c-19.6-34.3-46-66.5-68.9-83.9l-3.4-2.7
							c-29.8-23.9-69.4-31.1-106-19.2c-34.6,11.3-59.6,37.3-68.9,71.5c-0.7,2.7-1.4,5.4-1.9,8.2c-4.9,24.8,1.4,50.2,17.6,71.5
							c23.3,30.6,54.2,44.1,85,36.9c27.5-6.4,48.7-28.5,54.1-56.3c2.8-14.3-0.9-29.5-10.1-41.8c-13.9-18.7-32.4-27-50.7-22.8
							c-16.2,3.7-28.7,16.7-31.9,33.1c-3.3,17.1,7.8,33.7,24.9,37c5.8,1.1,9.6,6.8,8.5,12.6c-1.1,5.8-6.8,9.6-12.6,8.5
							c-28.6-5.6-47.3-33.4-41.8-62.1c4.8-24.7,23.7-44.3,48.1-49.9c26.6-6.1,53.7,5.5,72.7,30.9c12.8,17.2,17.9,38.6,14,58.7
							c-7,36.1-34.6,64.8-70.2,73.1c-38.7,9-78.7-7.7-106.9-44.8c-19.7-25.9-27.6-58.2-21.6-88.6c0.6-3.3,1.4-6.5,2.2-9.7
							c11.1-41.3,41.3-72.7,82.9-86.3c43.5-14.2,90.7-5.7,126.1,22.8l3.2,2.6c25.2,19.1,53.1,52.9,74.4,90.2
							c54.1,96.4,131.2,94.8,134.4,94.7c0.4,0,0.9,0,1.3,0c14,1.1,27.6-3.3,38.3-12.5c10.7-9.2,17.2-22,18.3-36
							c1.7-21.9-14.6-41.2-36.3-43.2c-7.9-0.7-16.2,2.4-22.3,8.3c-9,8.7-12.3,19-8.9,28.3c2.9,8.1,10.2,13.7,18.7,14.4
							c5.9,0.5,10.3,5.6,9.8,11.5c-0.5,5.9-5.5,10.2-11.5,9.8c-16.9-1.3-31.5-12.5-37.2-28.5c-6.2-17.3-0.9-36.4,14.2-51
							c10.5-10.1,25-15.4,39-14.2c33.4,2.9,58.4,32.6,55.8,66.2c-1.6,19.8-10.7,37.8-25.7,50.6C679.5,835.2,662.7,841.5,645.1,841.5
							z"/>
					</g>
				</g>
				<g>
					<path class="st0" d="M771.4,841.5c-17.6,0-34.4-6.2-47.9-17.8c-15-12.9-24.2-30.9-25.7-50.6c-2.6-33.6,22.4-63.2,55.8-66.2
						c14-1.2,28.5,4.1,39,14.2c15.1,14.6,20.4,33.6,14.2,51c-5.7,16-20.3,27.2-37.2,28.5c-5.8,0.4-11.1-3.9-11.5-9.8
						c-0.5-5.9,3.9-11.1,9.8-11.5c8.5-0.7,15.8-6.3,18.7-14.4c3.3-9.3,0.1-19.6-8.9-28.3c-6.1-5.9-14.4-8.9-22.3-8.3
						c-21.7,1.9-38,21.3-36.3,43.2c1.1,14.1,7.6,26.9,18.3,36c10.7,9.2,24.3,13.6,38.3,12.5c0.4,0,0.9,0,1.3,0
						c3.2,0,80.4,1.7,134.4-94.6c21.3-37.4,49.2-71.1,74.6-90.4l2.9-2.4c35.5-28.5,82.6-37,126.1-22.8c41.6,13.5,71.8,45,82.9,86.3
						c0.9,3.1,1.6,6.4,2.2,9.7c6,30.4-1.9,62.7-21.6,88.5c-28.2,37.1-68.2,53.8-106.9,44.7c-35.7-8.3-63.3-37-70.2-73.1
						c-3.9-20.2,1.2-41.6,14-58.7c19-25.4,46.1-37,72.7-30.9c24.5,5.6,43.4,25.2,48.1,49.9c5.5,28.7-13.2,56.6-41.8,62.1
						c-5.8,1.1-11.4-2.7-12.6-8.5c-1.1-5.8,2.7-11.4,8.5-12.6c17-3.3,28.2-19.9,24.9-37c-3.2-16.4-15.7-29.4-31.9-33.1
						c-18.3-4.2-36.8,4.1-50.7,22.8c-9.2,12.3-12.9,27.6-10.1,41.8c5.4,27.8,26.6,49.9,54.1,56.3c30.7,7.1,61.7-6.3,85-36.8
						c16.2-21.3,22.5-46.7,17.6-71.5c-0.5-2.8-1.2-5.5-1.9-8.2c-9.2-34.2-34.3-60.3-68.9-71.5c-36.6-11.9-76.2-4.8-106,19.2
						l-3.2,2.6c-23.2,17.6-49.6,49.7-69.2,84.1c-58.6,104.5-143.9,105.7-153.3,105.5C774.9,841.4,773.1,841.5,771.4,841.5z"/>
				</g>
				<g>
					<path class="st0" d="M708.2,710.1c-18.4,0-33.1-12.3-36.7-30.7c-8.5-43.2,26.2-98.2,27.7-100.5c3.9-6.2,14.1-6.2,18.1,0
						c1.5,2.3,36.2,57.3,27.7,100.5C741.4,697.7,726.6,710.1,708.2,710.1z M708.3,606.8c-8.7,17.6-20.1,46.1-15.7,68.5c0,0,0,0,0,0
						c1.9,9.9,9.4,13.4,15.7,13.4c6.3,0,13.8-3.5,15.7-13.4C728.1,654.1,717.6,625.8,708.3,606.8z"/>
				</g>
			</g>
		</g>
	</g>
</g>
</svg>
