<?xml version="1.0" encoding="utf-8"?>
<!-- Generator: Adobe Illustrator 23.0.1, SVG Export Plug-In . SVG Version: 6.00 Build 0)  -->
<svg version="1.1" id="Layer_1" xmlns="http://www.w3.org/2000/svg" xmlns:xlink="http://www.w3.org/1999/xlink" x="0px" y="0px"
	 viewBox="0 0 631.5 206.3" style="enable-background:new 0 0 631.5 206.3;" xml:space="preserve">
<style type="text/css">
	.st0{fill:#CFDADD;}
</style>
<path class="st0" d="M589.9,206.3c-180.9,0-253.4-10.6-370.8-11.5c-44.6-0.3-109.6,4-146.2,4c-54.7,0-72.9-34-72.9-77.1V51.2
	c0-23,17.6-49.7,60.2-49.7c0,0,65.2-4.5,146.8,2.5c60.3,5.2,137,3.3,204.9,3.3c49.5,0,146.2,5.7,146.2,5.7
	c43.7,0,70.8,7.1,70.8,65.6l2.7,93.4C631.5,194.9,603.4,206.3,589.9,206.3z"/>
</svg>
